HIERARCHY
ROOT Hips
{
  OFFSET 40.9192 92.6879 18.85
  CHANNELS 6 Xposition Yposition Zposition Zrotation Xrotation Yrotation
  JOINT LeftUpLeg
  {
    OFFSET 8.64259 1.95398 -2.38835
    CHANNELS 3 Zrotation Xrotation Yrotation
    JOINT LeftLeg
    {
      OFFSET 43.7702 0 0
      CHANNELS 3 Zrotation Xrotation Yrotation
      JOINT LeftFoot
      {
        OFFSET 40.6238 0 0
        CHANNELS 3 Zrotation Xrotation Yrotation
        JOINT LeftToeBase
        {
          OFFSET 12.7242 0 0
          CHANNELS 3 Zrotation Xrotation Yrotation
          End Site
          {
            OFFSET 0 0 0
          }
        }
      }
    }
  }
  JOINT RightUpLeg
  {
    OFFSET -8.2249 1.95398 -2.59336
    CHANNELS 3 Zrotation Xrotation Yrotation
    JOINT RightLeg
    {
      OFFSET 43.5653 0 0
      CHANNELS 3 Zrotation Xrotation Yrotation
      JOINT RightFoot
      {
        OFFSET 40.6238 0 0
        CHANNELS 3 Zrotation Xrotation Yrotation
        JOINT RightToeBase
        {
          OFFSET 12.7242 0 0
          CHANNELS 3 Zrotation Xrotation Yrotation
          End Site
          {
            OFFSET 0 0 0
          }
        }
      }
    }
  }
  JOINT Spine
  {
    OFFSET 0.165834 0.87714 6.61349
    CHANNELS 3 Zrotation Xrotation Yrotation
    JOINT Spine1
    {
      OFFSET 7.38963 1.71661e-005 0
      CHANNELS 3 Zrotation Xrotation Yrotation
      JOINT Spine2
      {
        OFFSET 11.9445 1.14441e-005 0
        CHANNELS 3 Zrotation Xrotation Yrotation
        JOINT Spine3
        {
          OFFSET 14.7254 4.19617e-005 0
          CHANNELS 3 Zrotation Xrotation Yrotation
          JOINT Spine4
          {
            OFFSET 10.9679 0 0
            CHANNELS 3 Zrotation Xrotation Yrotation
            JOINT RightShoulder
            {
              OFFSET 2.46616 -1.6653 3.69651
              CHANNELS 3 Zrotation Xrotation Yrotation
              JOINT RightArm
              {
                OFFSET 13.0012 0 0
                CHANNELS 3 Zrotation Xrotation Yrotation
                JOINT RightForeArm
                {
                  OFFSET 28.7848 1.52588e-005 0
                  CHANNELS 3 Zrotation Xrotation Yrotation
                  JOINT RightHand
                  {
                    OFFSET 26.5688 1.52588e-005 0
                    CHANNELS 3 Zrotation Xrotation Yrotation
                    End Site
                    {
                      OFFSET 0 0 0
                    }
                  }
                }
              }
            }
            JOINT LeftShoulder
            {
              OFFSET 2.38034 -1.29275 -3.7523
              CHANNELS 3 Zrotation Xrotation Yrotation
              JOINT LeftArm
              {
                OFFSET 16.3182 6.10351e-005 0
                CHANNELS 3 Zrotation Xrotation Yrotation
                JOINT LeftForeArm
                {
                  OFFSET 27.0901 0 0
                  CHANNELS 3 Zrotation Xrotation Yrotation
                  JOINT LeftHand
                  {
                    OFFSET 24.5451 1.52588e-005 0
                    CHANNELS 3 Zrotation Xrotation Yrotation
                    End Site
                    {
                      OFFSET 0 0 0
                    }
                  }
                }
              }
            }
            JOINT Neck
            {
              OFFSET 5.0226 -0.0266342 0
              CHANNELS 3 Zrotation Xrotation Yrotation
              JOINT Head
              {
                OFFSET 6.69363 2.86102e-005 0
                CHANNELS 3 Zrotation Xrotation Yrotation
                End Site
                {
                  OFFSET 0 0 0
                }
              }
            }
          }
        }
      }
    }
  }
}
MOTION
Frames:	9
Frame Time:	0.0416667
-272.134 91.1353 -278.865 118.549 -63.4547 108.929 -158.42 0.913715 98.6648 -73.6057 -28.1723 -8.6056 10.2325 -24.3846 -29.4697 88.8448 -7.46704 -102.091 -177.432 1.70142 97.679 -56.909 -15.202 -28.5165 4.4488 18.9306 27.9309 96.8858 10.2204 11.0274 1.61497 10.3186 -89.5303 6.22358 3.42469 0.811983 -5.44302 3.45711 0.660296 -28.0059 3.02224 1.8045 -7.99321 3.02224 1.80449 95.1473 -45.7911 -93.4991 22.697 -3.5278 -5.69814 16.7926 -24.9728 -44.57 -30.0634 -5.19686 14.7435 -88.7591 -54.4317 81.4094 -30.0078 20.0293 18.1237 19.9675 0.123341 -82.1092 35.6082 2.80125 4.01951 29.6204 4.82302 5.50114 -10.2609 2.48994 2.00444 
-271.982 91.3319 -278.375 116.261 -63.016 105.823 -156.191 10.5796 93.7803 -76.671 4.39354 -4.05163 46.6509 -8.32119 -14.793 71.6454 20.2805 -29.6836 -176.891 3.69129 94.4453 -58.5332 -18.3739 -23.5713 5.99476 16.4162 23.7046 99.0012 7.28283 5.55719 2.11085 10.0702 -89.3643 6.71119 4.48753 1.07691 -4.95226 4.53056 0.877969 -27.535 3.95616 2.37758 -7.52236 3.95616 2.37757 94.4945 -43.5568 -94.9386 29.4276 2.1208 6.1244 0.284243 -23.728 -80.5491 -20.363 -8.03549 39.6714 -94.3505 -49.1339 72.0333 -34.7626 16.714 27.771 19.5873 -0.362443 -83.4447 36.8159 3.06938 4.47939 18.3737 1.33226 2.51171 -1.14601 0.750637 3.70212 
-270.346 91.9846 -276.823 109.714 -62.7821 99.4765 -157.545 21.9441 90.6721 -71.0848 18.1605 -5.29502 50.8019 -6.85623 1.38302 40.3153 9.66215 7.36163 -178.379 4.97243 91.7756 -57.9077 -19.8449 -21.9888 10.7751 15.7996 20.9532 92.4317 6.65569 6.15385 2.20355 9.69861 -89.2539 7.45056 4.72293 1.2419 -4.2122 4.77301 1.03238 -26.7983 4.13111 2.60586 -6.78564 4.13113 2.60586 94.841 -42.8021 -94.4856 30.4695 2.6367 3.3525 -2.98349 -19.9262 -93.4089 -13.8101 -7.75956 57.1913 -92.0105 -48.1826 75.2758 -37.3327 17.3353 32.8928 17.0604 -1.05213 -84.3532 37.892 3.30072 4.85417 17.2548 1.10172 2.27776 -0.847134 0.589149 3.39582 
-267.591 93.0338 -274.246 97.1635 -61.6543 88.5615 -160.82 31.8485 89.5212 -59.3154 14.6504 -5.8148 46.5858 -9.34017 -6.85497 37.5719 7.36753 16.6787 179.849 7.10364 89.336 -54.9706 -22.7084 -19.5645 16.7688 15.2923 18.5152 84.4072 4.08582 2.49857 2.22121 8.99749 -89.1614 8.85246 4.80438 1.33468 -2.81007 4.85846 1.12147 -25.3969 4.18092 2.71886 -5.38428 4.18092 2.71886 94.5439 -42.1921 -95.0973 30.9596 3.40679 3.53313 -5.61732 -14.6019 -104.262 -8.32722 -6.01106 72.6961 -90.5566 -46.4927 77.0831 -40.0797 16.6759 37.3967 14.0068 -1.75679 -84.8692 37.9007 2.65914 3.12499 15.98 0.730403 2.20937 -0.91598 0.260302 2.89337 
-263.099 94.5792 -270.122 83.6812 -57.8566 78.2166 -165.215 38.3311 89.0607 -42.3332 14.6696 -5.9075 43.1514 -11.4224 -6.97691 36.4819 6.20927 16.6674 177.791 7.37949 86.8321 -46.8757 -24.1414 -14.3613 22.9535 13.046 14.8363 69.7878 2.11073 0.0447739 2.01812 8.13513 -89.2022 10.5844 4.38626 1.19087 -1.07947 4.4344 0.996314 -23.6581 3.82537 2.45558 -3.64543 3.82539 2.45559 94.1941 -41.1369 -95.8898 31.6008 3.2117 4.38083 -7.55218 -9.5182 -109.06 -4.8101 -4.05195 82.9841 -89.8685 -45.5877 77.9437 -42.6104 15.5488 40.8419 14.4564 -1.99992 -85.7219 38.5647 3.24313 4.54541 14.5916 0.865449 3.09087 -1.24861 0.151111 1.38281 
-256.868 96.4235 -265.014 78.6428 -53.1738 77.2714 -171.509 38.7031 90.817 -24.2196 18.3797 -3.66108 41.2301 -12.3582 -6.95113 34.0862 3.71329 16.1887 175.199 1.00944 86.0187 -32.9746 -22.2659 -7.93846 26.4874 9.7013 12.2304 53.3428 1.15941 -1.15381 1.78579 7.63231 -89.4847 11.6026 3.79374 0.631741 -0.0628698 3.81786 0.46392 -22.6347 3.42829 1.74394 -2.62209 3.42829 1.74393 94.571 -40.661 -95.3254 31.8271 1.48244 5.46123 -8.86777 -6.59034 -109.278 -4.24303 -4.23015 89.2907 -89.8134 -43.8694 77.6257 -44.4844 13.4086 43.277 12.0568 -2.23574 -85.8563 37.619 2.22013 1.99382 13.7889 0.524713 2.61163 -1.41639 -0.0577631 1.138 
-250.313 98.192 -259.441 78.79 -52.8625 78.168 -173.449 33.567 91.6726 -8.85773 17.6731 -2.93373 40.8889 -11.9838 -8.25058 35.0808 4.79455 12.1797 173.248 -3.09198 84.7628 -34.0888 -22.7879 -7.20355 42.7252 5.54391 5.24359 14.9792 1.30485 -10.1182 1.82761 7.56118 -89.4898 11.7462 3.87455 0.60853 0.0810018 3.89753 0.437155 -22.4928 3.51234 1.74619 -2.48016 3.51232 1.74618 95.2142 -40.1095 -94.2962 32.41 -1.76729 5.75399 -11.7415 -4.36291 -107.203 -4.99716 -5.7353 95.7345 -88.9322 -41.7437 78.5508 -46.9874 12.4412 44.9031 10.9773 -2.54291 -86.8579 38.9118 1.94002 1.01735 12.5073 0.476259 2.04695 -1.1235 0.0349479 0.633337 
-244.202 98.7311 -254.088 77.8262 -52.817 79.2937 -173.248 33.3274 92.9294 -5.23543 15.5896 -3.06276 41.5872 -12.2498 -8.65697 36.9746 6.61546 10.7296 173.779 -3.52432 85.8589 -41.0428 -23.5143 -6.78145 53.7635 1.48059 1.32809 -0.702301 6.12378 -22.8551 1.89512 7.38681 -89.6079 12.1006 3.95272 0.347462 0.435644 3.96415 0.172887 -22.1422 3.6653 1.52091 -2.12956 3.66529 1.52091 95.6458 -39.7793 -93.5933 32.6123 -5.57488 6.72354 -20.2304 -1.24825 -104.256 -6.44871 -9.15414 101.058 -88.1792 -40.7393 79.57 -48.1445 12.028 45.9003 11.7738 -3.16023 -88.2619 37.9363 1.6168 0.276866 11.3318 0.496742 0.362532 -0.574128 0.471976 1.61214 
-238.469 98.6236 -249.039 78.2978 -54.5834 82.0176 -171.059 32.5919 94.7588 -7.43468 11.0465 -4.13876 43.8052 -11.2742 -8.47836 37.4017 7.03373 11.3777 176.692 -1.6688 88.7188 -54.0937 -23.5785 -7.91695 63.3658 -2.54661 -1.40983 -10.4218 11.1002 -30.3592 2.06015 7.24366 -89.7738 12.395 4.20124 -0.0271799 0.730855 4.19595 -0.212399 -21.8555 4.01484 1.2388 -1.84286 4.01482 1.23879 95.073 -40.5156 -94.4756 32.8802 -9.14 9.41796 -41.3002 3.94646 -98.8765 -7.98822 -12.163 102.699 -87.6043 -40.6863 80.5202 -48.0601 11.8854 46.5505 11.5973 -3.57016 -89.7183 37.0196 1.78169 0.856907 9.63329 0.804692 -1.55004 -0.87919 1.17994 2.47532 
